<svg width="40" height="40" viewBox="0 0 40 40" fill="none" xmlns="http://www.w3.org/2000/svg">
<path fill-rule="evenodd" clip-rule="evenodd" d="M36.5392 17.6115C36.3018 19.2561 35.7392 20.8191 34.9055 22.2565C34.968 22.6124 35 22.9721 35 23.3333C35 24.588 34.6365 25.7888 33.9631 26.8799C33.6269 27.4244 33.5404 28.0625 33.5072 28.4841C33.469 28.9673 33.4819 29.496 33.5163 30.0039C33.555 30.5737 33.6251 31.1719 33.7053 31.7362C33.0548 31.5465 32.3497 31.356 31.6768 31.2042C31.1171 31.0779 30.5444 30.9703 30.0257 30.9167C29.5732 30.87 28.9193 30.8338 28.3346 31.0228C27.0561 31.4361 25.6493 31.6667 24.1667 31.6667C22.4035 31.6667 20.7842 31.3537 19.3648 30.81C19.0234 30.8255 18.6795 30.8333 18.3333 30.8333C16.3256 30.8333 14.3933 30.5693 12.5854 30.0813C15.2137 33.1211 19.5465 35 24.1667 35C25.9716 35 27.7039 34.7229 29.3004 34.2137C29.3031 34.2138 29.3082 34.2137 29.3158 34.2135C29.3568 34.2127 29.4706 34.2105 29.6832 34.2324C30.0175 34.267 30.4474 34.344 30.9433 34.4558C31.9306 34.6785 33.04 35.0072 33.9046 35.2817C35.7382 35.8637 37.5148 34.2636 37.1871 32.403C37.0461 31.6021 36.8995 30.6247 36.842 29.778C36.8131 29.3523 36.8099 29.0028 36.8302 28.7464C36.8385 28.6401 36.8493 28.5735 36.8561 28.5381C37.7938 26.9848 38.3334 25.2162 38.3334 23.3333C38.3334 21.2108 37.6741 19.2725 36.5392 17.6115Z" fill="#FF5A30"/>
<path fill-rule="evenodd" clip-rule="evenodd" d="M9.32834 9.49694C7.08174 11.2149 5.83327 13.4701 5.83327 15.8333C5.83327 17.0117 6.14004 18.1467 6.71557 19.202C6.93478 19.604 6.99697 20.0187 7.01921 20.2994C7.04346 20.6054 7.03137 20.92 7.00475 21.2142C6.95146 21.8032 6.82433 22.4705 6.67185 23.1277C6.49348 23.8966 6.26492 24.7165 6.033 25.4863C6.91342 25.1663 7.87569 24.8384 8.78794 24.5723C9.52522 24.3572 10.2698 24.1705 10.9325 24.0657C11.5033 23.9755 12.3317 23.8868 13.0449 24.1335C14.6454 24.6872 16.4359 25 18.3333 25C21.9119 25 25.0901 23.8889 27.3382 22.1697C29.5848 20.4517 30.8333 18.1965 30.8333 15.8333C30.8333 13.4701 29.5848 11.2149 27.3382 9.49694C25.0901 7.77778 21.9119 6.66667 18.3333 6.66667C14.7547 6.66667 11.5765 7.77778 9.32834 9.49694ZM7.3035 6.84908C10.1827 4.64734 14.0878 3.33333 18.3333 3.33333C22.5787 3.33333 26.4838 4.64734 29.363 6.84908C32.2438 9.05199 34.1666 12.2134 34.1666 15.8333C34.1666 19.4532 32.2438 22.6147 29.363 24.8176C26.4838 27.0193 22.5787 28.3333 18.3333 28.3333C16.0948 28.3333 13.9567 27.9684 12.0154 27.3044C12.0134 27.3098 11.856 27.2945 11.4531 27.3582C10.9886 27.4316 10.3958 27.5755 9.7215 27.7722C8.37906 28.1638 6.87148 28.7179 5.72316 29.1648C3.73378 29.939 1.70719 28.0284 2.37746 25.9932C2.73271 24.9146 3.15169 23.5514 3.42475 22.3744C3.56231 21.7815 3.65157 21.283 3.68498 20.9138C3.69657 20.7857 3.69957 20.6923 3.6989 20.6291C2.93176 19.1632 2.49993 17.5421 2.49993 15.8333C2.49993 12.2134 4.42277 9.05199 7.3035 6.84908ZM3.69341 20.5382C3.69357 20.538 3.69438 20.5425 3.69536 20.5522C3.69374 20.5433 3.69325 20.5384 3.69341 20.5382Z" fill="#FF5A30"/>
</svg>
